{
	"asset":{
		"generator":"Khronos glTF Blender I/O v4.4.56",
		"version":"2.0"
	},
	"scene":0,
	"scenes":[
		{
			"name":"Scene",
			"nodes":[
				0
			]
		}
	],
	"nodes":[
		{
			"mesh":0,
			"name":"Mesh_0.006",
			"scale":[
				3.94549822807312,
				3.94549822807312,
				3.94549822807312
			]
		}
	],
	"materials":[
		{
			"name":"Material_0.021",
			"pbrMetallicRoughness":{
				"baseColorTexture":{
					"index":0
				},
				"metallicFactor":0
			}
		}
	],
	"meshes":[
		{
			"name":"Mesh_0.021",
			"primitives":[
				{
					"attributes":{
						"POSITION":0,
						"NORMAL":1,
						"TEXCOORD_0":2,
						"COLOR_0":3
					},
					"indices":4,
					"material":0
				}
			]
		}
	],
	"textures":[
		{
			"sampler":0,
			"source":0
		}
	],
	"images":[
		{
			"mimeType":"image/jpeg",
			"name":"Image_0",
			"uri":"Image_0.jpg"
		}
	],
	"accessors":[
		{
			"bufferView":0,
			"componentType":5126,
			"count":1832300,
			"max":[
				0.14908544719219208,
				0.03084242343902588,
				0.1487898826599121
			],
			"min":[
				-0.1528436839580536,
				-0.03989267349243164,
				-0.15801334381103516
			],
			"type":"VEC3"
		},
		{
			"bufferView":1,
			"componentType":5126,
			"count":1832300,
			"type":"VEC3"
		},
		{
			"bufferView":2,
			"componentType":5126,
			"count":1832300,
			"type":"VEC2"
		},
		{
			"bufferView":3,
			"componentType":5126,
			"count":1832300,
			"type":"VEC3"
		},
		{
			"bufferView":4,
			"componentType":5125,
			"count":1832328,
			"type":"SCALAR"
		}
	],
	"bufferViews":[
		{
			"buffer":0,
			"byteLength":21987600,
			"byteOffset":0,
			"target":34962
		},
		{
			"buffer":0,
			"byteLength":21987600,
			"byteOffset":21987600,
			"target":34962
		},
		{
			"buffer":0,
			"byteLength":14658400,
			"byteOffset":43975200,
			"target":34962
		},
		{
			"buffer":0,
			"byteLength":21987600,
			"byteOffset":58633600,
			"target":34962
		},
		{
			"buffer":0,
			"byteLength":7329312,
			"byteOffset":80621200,
			"target":34963
		}
	],
	"samplers":[
		{
			"magFilter":9729,
			"minFilter":9987
		}
	],
	"buffers":[
		{
			"byteLength":87950512,
			"uri":"e.bin"
		}
	]
}
